<?xml version="1.0" encoding="UTF-8"?>
<svg version="1.1" xmlns="http://www.w3.org/2000/svg" width="512" height="512">
<path d="M0 0 C3.10070795 2.50695536 5.66894396 4.74102937 6.265625 8.8125 C6.23535952 13.04966658 5.59127203 15.32101746 2.76171875 18.5703125 C-0.08754684 21.14765648 -3.00685744 23.59177074 -6 26 C-7.3188307 27.13854111 -8.63210694 28.28357659 -9.9375 29.4375 C-10.5361084 29.95997314 -11.1347168 30.48244629 -11.75146484 31.02075195 C-21.13561624 39.28104678 -30.08806056 47.92804823 -38.91088867 56.78051758 C-40.82422194 58.69925505 -42.74290504 60.61252754 -44.66210938 62.52539062 C-50.65611726 68.51615059 -56.51737671 74.53178068 -62 81 C-63.61967817 82.77570221 -65.24411718 84.54708307 -66.875 86.3125 C-71.32186477 91.19336809 -75.52428901 96.22375524 -79.66748047 101.36279297 C-81.18221604 103.22388068 -82.71671785 105.06757206 -84.25390625 106.91015625 C-92.15102105 116.38911071 -99.70772002 126.04949732 -107 136 C-107.50321777 136.68078613 -108.00643555 137.36157227 -108.52490234 138.06298828 C-127.82199212 164.18369443 -145.24970375 191.60738945 -161 220 C-161.56944336 221.02383789 -162.13888672 222.04767578 -162.72558594 223.10253906 C-190.05863651 272.49800851 -211.77962739 325.03341635 -225.75488281 379.78100586 C-226.04041267 380.86989861 -226.04041267 380.86989861 -226.33171082 381.98078918 C-226.84284411 383.93260542 -227.33910687 385.88829901 -227.83422852 387.84423828 C-229.31250056 391.84594394 -231.18359438 394.09179719 -235 396 C-238.94414064 396.5440194 -241.53516237 396.8921408 -244.98828125 394.7890625 C-249.52883119 390.91276135 -253.44943685 386.4008975 -257.390625 381.9296875 C-260.49714718 378.44182577 -263.68055784 375.0321753 -266.875 371.625 C-271.10738362 367.10473752 -275.32288569 362.57141418 -279.5 358 C-283.63791184 353.47263764 -287.81024595 348.97940488 -292 344.5 C-297.12996344 339.01461826 -302.2251005 333.49978027 -307.29296875 327.95703125 C-311.67487879 323.165567 -316.08619455 318.40117589 -320.49267578 313.63232422 C-321.97410134 312.02804639 -323.45408992 310.42245634 -324.93359375 308.81640625 C-330.28952001 303.00420142 -335.66477464 297.21092348 -341.0625 291.4375 C-346.17110874 285.97254144 -351.24500725 280.47800817 -356.29296875 274.95703125 C-360.67487879 270.165567 -365.08619455 265.40117589 -369.49267578 260.63232422 C-370.97410134 259.02804639 -372.45408992 257.42245634 -373.93359375 255.81640625 C-379.28952001 250.00420142 -384.66477464 244.21092348 -390.0625 238.4375 C-395.17110874 232.97254144 -400.24500725 227.47800817 -405.29296875 221.95703125 C-408.16490669 218.8166683 -411.05008448 215.68862967 -413.9375 212.5625 C-414.68495483 211.75317017 -414.68495483 211.75317017 -415.44750977 210.92749023 C-416.96483906 209.28483869 -418.48237982 207.64238279 -420 206 C-421.01304751 204.90367048 -422.02606838 203.80731635 -423.0390625 202.7109375 C-423.53954102 202.16977295 -424.04001953 201.6286084 -424.55566406 201.07104492 C-425.55501037 199.98766414 -426.55178825 198.90190814 -427.54589844 197.8137207 C-430.03327978 195.0957675 -432.55180562 192.43060718 -435.1640625 189.83203125 C-443.56075375 181.35947831 -443.56075375 181.35947831 -444.375 176.0625 C-444.33462584 172.34807747 -443.43819894 169.87359161 -441 167 C-437.93207425 164.95471617 -437.28369239 164.74635048 -433.820755 164.71238708 C-432.96994858 164.69952164 -432.11914215 164.68665619 -431.24255371 164.67340088 C-430.31213257 164.66959412 -429.38171143 164.66578735 -428.4230957 164.66186523 C-427.44064377 164.65032913 -426.45819183 164.63879303 -425.44596863 164.62690735 C-422.18922349 164.59254232 -418.9326681 164.57408514 -415.67578125 164.55859375 C-414.56319632 164.55169085 -413.45061138 164.54478794 -412.30431175 164.53767586 C-406.4142174 164.50181449 -400.52421917 164.47828986 -394.6340332 164.46459961 C-388.55518986 164.44806254 -382.47751203 164.38965968 -376.39906025 164.32145596 C-371.72093527 164.27663163 -367.04308838 164.26310205 -362.36476707 164.25798225 C-360.12448122 164.25009428 -357.88420415 164.23046614 -355.6441288 164.19875908 C-352.50313004 164.15723962 -349.36505714 164.16016389 -346.22387695 164.17358398 C-344.84342697 164.14054672 -344.84342697 164.14054672 -343.43508911 164.10684204 C-337.17407108 164.19742295 -334.07923665 165.86574526 -329.62822247 170.25518894 C-329.09090905 170.83097659 -328.55359564 171.40676424 -328 172 C-327.19691406 172.81984375 -326.39382813 173.6396875 -325.56640625 174.484375 C-321.82667713 178.71252878 -318.17383422 182.98482005 -314.625 187.375 C-310.94363311 191.92860712 -307.07225527 196.23582516 -303.08642578 200.51904297 C-299.30523247 204.60642715 -295.80317332 208.88034173 -292.3125 213.21875 C-289.36491953 216.763813 -286.24684414 220.12672343 -283.10351562 223.49755859 C-279.14102284 227.77442404 -275.48567721 232.24059325 -271.875 236.8203125 C-270.00683264 239.18975364 -270.00683264 239.18975364 -267 241 C-266.56171875 240.07703125 -266.1234375 239.1540625 -265.671875 238.203125 C-255.118638 216.35118103 -241.79319426 196.19593065 -227 177 C-226.58814453 176.46197754 -226.17628906 175.92395508 -225.75195312 175.36962891 C-220.53669649 168.56822843 -215.16773161 161.92203331 -209.5625 155.4375 C-208.84755371 154.60931763 -208.84755371 154.60931763 -208.11816406 153.7644043 C-198.79932908 143.09051905 -189.03351771 132.86653287 -178.99853516 122.86816406 C-177.23351456 121.1085652 -175.47398867 119.34359603 -173.71484375 117.578125 C-167.97747076 111.83738131 -162.1931642 106.25304675 -156 101 C-154.39231627 99.54554483 -152.78760285 98.08779105 -151.1875 96.625 C-124.56523847 72.63659996 -94.67997209 50.8691375 -64.08447266 32.27783203 C-61.78742871 30.86968867 -59.50845876 29.43484814 -57.23046875 27.99609375 C-10.33546107 -1.52490409 -10.33546107 -1.52490409 0 0 Z " fill="#000000" transform="translate(475,58)"/>
</svg>
